<svg xmlns="http://www.w3.org/2000/svg" xmlns:xlink="http://www.w3.org/1999/xlink" version="1.1" id="Google_Plus_Icon" x="0px" y="0px" viewBox="0 0 51.75 51.75" enable-background="new 0 0 51.75 51.75" xml:space="preserve">
  <polygon  fill="white" id="Plus_Shadiw" points="50 16 42 16 42 8 40 8 40 16 32 16 32 18 40 18 40 26 42 26 42 18 50 18 "/>
  <path  fill="white" id="g_Shadow" d="M23.621 30.417c-1.091-0.771-3.175-2.648-3.175-3.752 0-1.292 0.369-1.929 2.314-3.449 1.995-1.56 3.406-3.726 3.406-6.273 0-3.034-1.352-5.942-3.888-6.942h3.824l2.698-2c0 0-9.045 0-12.06 0 -5.407 0-10.496 4.096-10.496 8.842 0 4.849 3.686 8.762 9.187 8.762 0.382 0 0.754-0.007 1.118-0.034 -0.357 0.684-0.612 1.454-0.612 2.253 0 1.348 0.725 2.44 1.642 3.332 -0.692 0-1.361 0.02-2.091 0.02 -6.697 0-11.852 4.267-11.852 8.689 0 4.355 5.651 7.08 12.348 7.08 7.636 0 11.852-4.331 11.852-8.688C27.837 34.763 26.807 32.67 23.621 30.417zM17.178 24.374c-3.107-0.093-6.061-3.476-6.597-7.556 -0.536-4.081 1.547-7.204 4.654-7.111 3.106 0.093 6.06 3.367 6.597 7.447C22.367 21.235 20.284 24.467 17.178 24.374zM15.961 45.018c-4.629 0-7.972-2.93-7.972-6.449 0-3.451 4.146-6.322 8.776-6.272 1.08 0.012 2.087 0.186 3.001 0.481 2.513 1.747 4.315 2.734 4.823 4.727 0.097 0.404 0.148 0.818 0.148 1.243C24.737 42.268 22.469 45.018 15.961 45.018z"/>
</svg>