<svg xmlns="http://www.w3.org/2000/svg" xmlns:xlink="http://www.w3.org/1999/xlink" version="1.1" id="Layer_1" x="0px" y="0px" viewBox="0 0 40 40" enable-background="new 0 0 40 40" xml:space="preserve">
  <path d="M25.063 8.501c2.236-0.04 3.424 0.78 4.56 1.825 0.964-0.083 2.216-0.626 2.954-1.004 0.24-0.133 0.479-0.265 0.717-0.396 -0.419 1.149-0.99 2.047-1.869 2.729 -0.197 0.152-0.389 0.357-0.634 0.453 0 0.005 0 0.009 0 0.014 1.25-0.012 2.283-0.583 3.265-0.89 0 0.005 0 0.009 0 0.014 -0.515 0.825-1.213 1.663-1.957 2.263 -0.299 0.24-0.599 0.48-0.9 0.721 0.018 1.335-0.018 2.61-0.268 3.732 -1.439 6.524-5.256 10.957-11.297 12.854 -2.168 0.682-5.675 0.961-8.161 0.341 -1.231-0.31-2.346-0.657-3.389-1.118 -0.582-0.254-1.118-0.531-1.632-0.849 -0.169-0.104-0.337-0.209-0.507-0.311 0.561 0.017 1.216 0.173 1.841 0.07 0.569-0.091 1.123-0.067 1.647-0.187 1.305-0.286 2.464-0.667 3.461-1.256 0.484-0.286 1.218-0.62 1.563-1.032 -0.649 0.012-1.236-0.14-1.717-0.311 -1.867-0.665-2.953-1.886-3.658-3.719 0.566 0.062 2.194 0.21 2.576-0.114 -0.712-0.039-1.398-0.455-1.887-0.766 -1.5-0.945-2.724-2.533-2.715-4.976 0.196 0.094 0.395 0.188 0.591 0.282 0.377 0.16 0.762 0.246 1.21 0.34 0.189 0.04 0.569 0.152 0.789 0.07 -0.01 0-0.021 0-0.029 0 -0.29-0.341-0.764-0.567-1.056-0.933 -0.961-1.206-1.864-3.062-1.293-5.273 0.144-0.561 0.375-1.057 0.619-1.513 0.01 0.003 0.018 0.009 0.026 0.014 0.112 0.236 0.362 0.411 0.522 0.608 0.492 0.614 1.097 1.168 1.717 1.654 2.103 1.661 4 2.681 7.048 3.436 0.773 0.192 1.665 0.339 2.587 0.34 -0.26-0.761-0.175-1.993 0.029-2.729 0.511-1.853 1.626-3.188 3.265-3.903 0.389-0.171 0.824-0.295 1.28-0.396C24.595 8.558 24.829 8.529 25.063 8.501z"/>
</svg>